HIERARCHY
ROOT Hips
{
	OFFSET -0.001795 -0.223333 0.028219
	CHANNELS 6 Xposition Yposition Zposition Zrotation Yrotation Xrotation 
	JOINT LeftUpLeg
	{
		OFFSET 0.069520 -0.091406 -0.006815
		CHANNELS 3 Zrotation Yrotation Xrotation
		JOINT LeftLeg
		{
			OFFSET 0.034277 -0.375199 -0.004496
			CHANNELS 3 Zrotation Yrotation Xrotation
			JOINT LeftFoot
			{
				OFFSET -0.013596 -0.397961 -0.043693
				CHANNELS 3 Zrotation Yrotation Xrotation
				JOINT LeftToe
				{
					OFFSET 0.026358 -0.055791 0.119288
					CHANNELS 3 Zrotation Yrotation Xrotation
					End Site
					{
						OFFSET 0.000000 0.000000 0.000000
					}
				}
			}
		}
	}
	JOINT RightUpLeg
	{
		OFFSET -0.067670 -0.090522 -0.004320
		CHANNELS 3 Zrotation Yrotation Xrotation
		JOINT RightLeg
		{
			OFFSET -0.038290 -0.382569 -0.008850
			CHANNELS 3 Zrotation Yrotation Xrotation
			JOINT RightFoot
			{
				OFFSET 0.015774 -0.398415 -0.042312
				CHANNELS 3 Zrotation Yrotation Xrotation
				JOINT RightToe
				{
					OFFSET -0.025372 -0.048144 0.123348
					CHANNELS 3 Zrotation Yrotation Xrotation
					End Site
					{
						OFFSET 0.000000 0.000000 0.000000
					}
				}
			}
		}
	}
	JOINT Spine
	{
		OFFSET -0.002533 0.108963 -0.026696
		CHANNELS 3 Zrotation Yrotation Xrotation
		JOINT Spine1
		{
			OFFSET 0.005487 0.135180 0.001092
			CHANNELS 3 Zrotation Yrotation Xrotation
			JOINT Spine2
			{
				OFFSET 0.001457 0.052922 0.025425
				CHANNELS 3 Zrotation Yrotation Xrotation
				JOINT Neck
				{
					OFFSET -0.002778 0.213870 -0.042857
					CHANNELS 3 Zrotation Yrotation Xrotation
					JOINT Head
					{
						OFFSET 0.005152 0.064970 0.051349
						CHANNELS 3 Zrotation Yrotation Xrotation
						End Site
						{
							OFFSET 0.000000 0.000000 0.000000
						}
					}
				}
				JOINT LeftShoulder
				{
					OFFSET 0.078845 0.121749 -0.034090
					CHANNELS 3 Zrotation Yrotation Xrotation
					JOINT LeftArm
					{
						OFFSET 0.090977 0.030469 -0.008868
						CHANNELS 3 Zrotation Yrotation Xrotation
						JOINT LeftForeArm
						{
							OFFSET 0.259612 -0.012772 -0.027456
							CHANNELS 3 Zrotation Yrotation Xrotation
							JOINT LeftHand
							{
								OFFSET 0.249234 0.008986 -0.001171
								CHANNELS 3 Zrotation Yrotation Xrotation
								End Site
								{
									OFFSET 0.000000 0.000000 0.000000
								}
							}
						}
					}
				}
				JOINT RightShoulder
				{
					OFFSET -0.081759 0.118833 -0.038615
					CHANNELS 3 Zrotation Yrotation Xrotation
					JOINT RightArm
					{
						OFFSET -0.096012 0.032551 -0.009143
						CHANNELS 3 Zrotation Yrotation Xrotation
						JOINT RightForeArm
						{
							OFFSET -0.253742 -0.013329 -0.021401
							CHANNELS 3 Zrotation Yrotation Xrotation
							JOINT RightHand
							{
								OFFSET -0.255298 0.007772 -0.005559
								CHANNELS 3 Zrotation Yrotation Xrotation
								End Site
								{
									OFFSET 0.000000 0.000000 0.000000
								}
							}
						}
					}
				}
			}
		}
	}
}
MOTION
Frames: 16
Frame Time: 0.050000
0.000000 0.914309 0.000000 0.016264 -20.412698 1.698145 -5.160119 -2.414687 -28.741368 -2.002064 0.585041 12.812601 -1.816746 1.421903 20.864543 0.000000 0.000000 0.000000 4.037397 -1.066259 9.029204 0.800273 1.393920 19.023459 -1.188915 -3.203393 0.743206 0.000000 0.000000 0.000000 -1.921210 -0.033950 3.715173 -3.066964 1.095561 -5.946598 4.828700 12.937637 8.586078 4.746855 -0.819709 -23.677551 0.000000 0.000000 0.000000 -12.668605 -5.503047 1.392660 -55.984345 -17.944069 1.447871 -110.569580 -75.521542 101.790417 0.000000 0.000000 0.000000 9.483710 12.321788 4.728831 61.540725 30.161418 10.112893 53.122998 72.165903 43.712243 0.000000 0.000000 0.000000 
-0.016355 0.917648 0.050530 -0.710997 -16.879769 2.015605 -6.583100 -2.877922 -26.086469 0.033738 -0.004591 14.524944 -2.780026 -0.793840 15.767477 0.000000 0.000000 0.000000 3.220013 -0.748625 5.733937 4.222131 1.390002 29.476161 3.192727 -0.320548 11.009150 0.000000 0.000000 0.000000 -2.547008 0.007575 3.005102 -1.423735 0.466230 -6.104075 4.438988 11.485627 8.958967 5.473136 -1.190035 -23.320373 0.000000 0.000000 0.000000 -14.800320 -2.953289 -0.060989 -55.426218 -19.796151 2.241142 -109.984282 -72.132411 97.397826 0.000000 0.000000 0.000000 8.913840 10.021387 3.787982 62.650403 27.273292 8.674043 69.366974 67.109370 53.177747 0.000000 0.000000 0.000000 
-0.031445 0.924357 0.098678 0.103242 -16.864717 0.953660 -7.847292 -2.937194 -23.064357 0.583962 -0.090582 16.880170 -2.348412 -0.893348 12.962673 0.000000 0.000000 0.000000 -0.581328 0.012256 0.295737 8.413534 1.044597 42.125914 7.221603 0.618002 23.176331 0.000000 0.000000 0.000000 -2.154576 -0.025628 3.403878 -2.158960 0.796359 -5.321818 2.566890 12.272146 7.378621 5.662318 -1.250943 -22.177156 0.000000 0.000000 0.000000 -12.794654 -4.851115 0.726269 -56.248712 -20.348119 2.690580 -110.531576 -74.208560 99.167117 0.000000 0.000000 0.000000 10.134404 9.521763 3.755293 63.289070 26.801323 8.776293 68.092253 66.452795 51.877561 0.000000 0.000000 0.000000 
-0.045590 0.927013 0.142902 -0.096783 -16.438806 0.779190 -8.113024 -2.762092 -20.483211 1.140656 -0.221444 18.388292 -2.114895 -1.357536 9.796698 0.000000 0.000000 0.000000 -1.582314 0.647838 -6.722030 11.401431 0.381279 52.721800 5.772304 -4.138982 31.221196 0.000000 0.000000 0.000000 -1.670426 -0.045000 3.017307 -3.127312 1.339294 -2.795610 2.760814 9.681297 5.337531 5.193938 -1.196929 -22.357952 0.000000 0.000000 0.000000 -11.952472 -3.869697 0.634995 -57.833099 -21.455349 3.663625 -111.676755 -74.559158 101.689882 0.000000 0.000000 0.000000 9.610186 10.116076 3.651504 63.416456 26.728052 8.780225 69.485485 67.080948 52.359311 0.000000 0.000000 0.000000 
-0.059309 0.931383 0.184261 -0.570940 -15.785202 -0.596941 -8.397565 -2.337678 -15.839024 2.271632 -0.575761 18.410260 -2.093019 -1.958372 7.531778 0.000000 0.000000 0.000000 -2.180091 1.175489 -12.090692 12.376520 -0.097274 57.193090 2.844107 -7.726107 31.342172 0.000000 0.000000 0.000000 -1.197629 -0.102334 4.217807 -2.871620 1.195989 -3.448805 2.272767 7.351409 6.571066 4.841072 -1.281353 -22.265208 0.000000 0.000000 0.000000 -13.423214 -4.090138 1.034990 -55.994121 -22.335982 3.793525 -113.015970 -76.034396 105.877041 0.000000 0.000000 0.000000 10.171239 10.982740 3.761129 62.794031 26.691906 8.313729 69.487240 66.821111 51.391687 0.000000 0.000000 0.000000 
-0.071750 0.934746 0.223991 -1.540791 -14.474900 -1.239780 -8.329653 -1.881214 -12.110184 3.837447 -1.094669 18.567105 -2.421969 -3.054028 5.776500 0.000000 0.000000 0.000000 -1.716445 1.696279 -16.367918 10.043714 0.740668 55.374150 -1.804837 -11.228867 18.527679 0.000000 0.000000 0.000000 0.204876 -0.193513 4.845106 -2.867184 1.223940 -3.134029 2.321221 5.125027 7.225990 3.495178 -0.714120 -22.600495 0.000000 0.000000 0.000000 -13.477268 -4.023580 1.281565 -57.229503 -22.831238 4.155891 -110.164908 -76.736216 104.379252 0.000000 0.000000 0.000000 10.343066 11.397523 3.715226 60.935506 26.535570 7.709472 75.911377 69.441696 58.542815 0.000000 0.000000 0.000000 
-0.083517 0.938057 0.262215 -2.448365 -12.568875 -2.076253 -7.854582 -1.243504 -7.743080 4.974680 -1.487026 17.558902 -3.109189 -4.716503 4.623185 0.000000 0.000000 0.000000 -1.513673 2.085576 -19.500884 7.301810 1.217400 48.940451 -4.810971 -13.701347 6.186146 0.000000 0.000000 0.000000 1.014181 -0.261718 5.586556 -2.374047 1.018301 -3.214335 2.292889 3.068470 8.325214 3.686666 -0.946751 -22.911493 0.000000 0.000000 0.000000 -13.704489 -3.989438 1.470406 -58.580511 -23.877213 4.801229 -109.170207 -76.834200 104.106704 0.000000 0.000000 0.000000 9.872850 10.338172 3.124483 60.353365 25.852443 7.008732 80.624005 69.442606 62.303839 0.000000 0.000000 0.000000 
-0.095336 0.939512 0.299268 -2.768110 -11.314009 -2.699073 -7.717486 -0.703820 -4.184190 5.920219 -1.782105 17.031016 -3.555021 -5.819306 4.001199 0.000000 0.000000 0.000000 -1.307789 2.271575 -20.958138 3.669853 1.799131 38.551514 -4.322538 -12.174833 4.200645 0.000000 0.000000 0.000000 1.115169 -0.288826 6.140415 -1.938776 0.833536 -3.288598 2.385497 1.852143 9.007407 2.179179 -0.230583 -22.686262 0.000000 0.000000 0.000000 -13.766544 -3.770997 1.472846 -59.864462 -24.271348 5.151297 -107.464047 -77.107822 102.949256 0.000000 0.000000 0.000000 8.602224 10.025557 2.981949 60.501287 26.290441 7.092907 84.663261 70.222438 66.582972 0.000000 0.000000 0.000000 
-0.107489 0.938668 0.335870 -3.190183 -9.498407 -2.925717 -6.342801 -0.212805 -1.223303 5.007627 -1.609902 17.077133 -3.534758 -6.493883 2.336451 0.000000 0.000000 0.000000 -1.086101 2.494274 -22.825930 1.694174 1.372763 27.725610 -3.448684 -10.831781 5.924119 0.000000 0.000000 0.000000 1.261320 -0.307964 6.324404 -1.294670 0.571669 -2.718020 2.192275 0.967549 8.451613 2.431588 -0.304894 -23.105067 0.000000 0.000000 0.000000 -14.153450 -3.978452 1.526866 -61.809068 -24.715387 5.758313 -111.561853 -78.673354 108.770308 0.000000 0.000000 0.000000 7.827570 9.405398 2.776004 60.616024 26.141571 7.065792 88.134668 70.001823 69.588043 0.000000 0.000000 0.000000 
-0.120495 0.936142 0.372973 -3.140772 -7.578365 -3.009184 -5.679110 0.225298 1.645566 4.802290 -1.630427 17.135984 -3.303733 -7.023380 0.313192 0.000000 0.000000 0.000000 -2.162771 2.278839 -23.216917 2.068154 0.382215 15.870643 -2.246149 -9.013180 8.216040 0.000000 0.000000 0.000000 1.335770 -0.325249 6.531365 -1.326373 0.596305 -3.945849 2.316056 -0.230458 9.202850 1.249886 0.368380 -24.358790 0.000000 0.000000 0.000000 -13.574551 -5.373563 2.266515 -63.918324 -26.052634 6.890594 -119.994255 -81.357119 120.718993 0.000000 0.000000 0.000000 6.576866 9.849144 3.001428 61.279704 26.854594 7.413938 87.500203 70.226467 69.270260 0.000000 0.000000 0.000000 
-0.134811 0.931198 0.411161 -3.196810 -6.082396 -2.135613 -4.686605 0.503047 3.625092 4.098703 -1.500710 17.345600 -2.219813 -6.091629 -2.376712 0.000000 0.000000 0.000000 -2.432770 2.273544 -24.160670 2.229081 -0.034726 6.779155 -1.449543 -8.168156 10.785387 0.000000 0.000000 0.000000 1.767306 -0.314559 5.670820 -1.872759 0.859240 -3.791849 2.147516 -0.852157 8.842285 1.270095 0.372150 -24.167129 0.000000 0.000000 0.000000 -13.053140 -5.239024 2.149163 -66.228805 -28.249997 8.813508 -141.551675 -83.286836 145.778254 0.000000 0.000000 0.000000 7.079159 10.482754 3.261794 61.380797 28.805406 8.608364 87.925144 70.255738 69.815401 0.000000 0.000000 0.000000 
-0.150793 0.924814 0.450982 -2.952122 -4.809338 -1.412827 -3.573003 0.728734 5.590046 3.121380 -1.314351 18.129183 -1.434129 -5.610205 -4.687882 0.000000 0.000000 0.000000 -1.874075 2.421810 -25.106814 1.531531 -0.022153 4.269926 -0.850111 -6.952543 11.051487 0.000000 0.000000 0.000000 1.663883 -0.275827 4.914656 -1.495862 0.705673 -4.402957 1.242814 -0.437930 8.485357 2.327236 -0.041736 -23.949756 0.000000 0.000000 0.000000 -13.073510 -6.299776 2.439690 -67.217860 -29.808012 10.000198 -166.810893 -82.181613 173.127835 0.000000 0.000000 0.000000 7.607555 11.939803 3.993903 61.743036 31.814565 10.615816 88.102367 72.694912 73.201870 0.000000 0.000000 0.000000 
-0.168081 0.919208 0.493945 -3.097395 -2.980377 -0.503933 -2.038861 0.838607 7.284818 3.431584 -1.488869 18.448424 -1.920649 -6.888821 -4.654057 0.000000 0.000000 0.000000 -0.800590 2.502547 -24.779489 1.706076 -0.012356 5.825158 -0.862199 -6.695289 10.939447 0.000000 0.000000 0.000000 2.288785 -0.234425 3.589133 -2.336572 1.102574 -3.183758 1.538184 -0.874260 5.502114 2.903546 -0.391087 -21.980616 0.000000 0.000000 0.000000 -13.294611 -7.060842 2.635068 -68.001307 -30.781382 11.118630 169.887198 -80.128651 -160.347105 0.000000 0.000000 0.000000 8.248179 13.108767 4.512615 62.729083 33.483577 12.257969 85.867853 74.777230 73.091823 0.000000 0.000000 0.000000 
-0.185402 0.917814 0.540444 -3.315772 -1.749107 -0.276362 -0.166178 0.887643 9.312558 4.172315 -1.841315 19.832094 -4.034972 -10.322997 -2.241312 0.000000 0.000000 0.000000 0.253343 2.643817 -24.752238 2.135512 0.027123 10.622561 -1.581223 -8.207553 11.980735 0.000000 0.000000 0.000000 2.037992 -0.161870 2.478299 -2.020110 0.972425 -2.356370 1.874197 -0.783484 3.379700 3.888323 -0.834929 -21.543128 0.000000 0.000000 0.000000 -12.933720 -7.465397 2.642888 -68.533567 -31.132834 11.665228 162.768850 -74.127160 -149.859226 0.000000 0.000000 0.000000 8.219491 13.800330 4.868032 63.862588 36.498930 14.744041 70.318458 77.542507 61.360528 0.000000 0.000000 0.000000 
-0.201802 0.921214 0.588099 -4.242373 -1.176552 0.491951 1.509402 0.683479 8.869057 5.440629 -2.551048 23.597993 -6.440753 -11.629480 3.305569 0.000000 0.000000 0.000000 1.922339 2.858817 -24.094828 2.689984 -0.038810 13.574551 -1.694005 -8.478704 12.515873 0.000000 0.000000 0.000000 2.929855 -0.053173 0.358374 -1.794877 0.866779 -1.283325 2.028987 -0.270505 0.939098 3.890446 -0.833725 -20.107072 0.000000 0.000000 0.000000 -11.439003 -6.441075 1.979398 -70.001118 -31.840119 12.754197 159.027799 -69.140511 -143.006821 0.000000 0.000000 0.000000 6.971465 14.275818 5.100697 66.129080 39.575468 17.862898 43.055189 80.151016 39.199311 0.000000 0.000000 0.000000 
-0.216482 0.927026 0.633963 -4.840367 -1.398852 0.564239 2.590480 0.461761 7.070004 5.726646 -3.136708 29.374677 -8.658551 -10.995464 10.641324 0.000000 0.000000 0.000000 3.962863 2.946576 -21.955702 2.540113 0.041836 15.458708 -1.888086 -8.643352 11.651863 0.000000 0.000000 0.000000 3.791887 0.025699 -0.841852 -1.558845 0.754322 -1.048498 2.295751 0.576634 -0.212855 3.300547 -0.497637 -19.317437 0.000000 0.000000 0.000000 -11.219305 -6.715437 1.974477 -67.396771 -33.324022 13.130210 147.947634 -63.295678 -123.567553 0.000000 0.000000 0.000000 5.752875 15.357066 5.563191 66.172892 43.178341 20.545850 10.459008 81.183408 11.710788 0.000000 0.000000 0.000000 
